<?xml version="1.0" standalone="no"?>
<!DOCTYPE svg PUBLIC "-//W3C//DTD SVG 20010904//EN"
 "http://www.w3.org/TR/2001/REC-SVG-20010904/DTD/svg10.dtd">
<svg version="1.0" xmlns="http://www.w3.org/2000/svg"
 width="512.000000pt" height="512.000000pt" viewBox="0 0 512.000000 512.000000"
 preserveAspectRatio="xMidYMid meet">
<metadata>
Created by potrace 1.14, written by Peter Selinger 2001-2017
</metadata>
<g transform="translate(0.000000,512.000000) scale(0.100000,-0.100000)"
fill="#000000" stroke="none">
<path d="M4177 4383 c-1 -1 -42 -4 -92 -7 -49 -3 -99 -8 -110 -10 -11 -2 -42
-7 -70 -10 -27 -4 -79 -12 -115 -17 -36 -6 -78 -13 -95 -15 -16 -3 -95 -21
-175 -41 -498 -122 -961 -346 -1370 -661 -47 -37 -87 -69 -90 -72 -3 -3 -39
-34 -80 -70 -120 -103 -303 -291 -400 -410 -25 -30 -48 -57 -51 -60 -3 -3 -45
-59 -93 -124 -125 -171 -238 -358 -324 -531 -41 -82 -102 -216 -102 -222 0 -3
-6 -19 -14 -36 -8 -18 -24 -59 -35 -92 -12 -33 -25 -69 -30 -80 -5 -11 -19
-54 -31 -95 -12 -41 -26 -86 -31 -100 -10 -28 -55 -216 -64 -270 -3 -19 -8
-42 -11 -51 -2 -10 -6 -31 -9 -49 -2 -17 -6 -43 -9 -58 -7 -35 -13 -83 -21
-157 -4 -33 -8 -70 -10 -83 -2 -13 -7 -93 -11 -177 l-6 -154 1396 0 1396 -1 1
28 c6 197 83 394 209 536 76 85 199 186 227 186 6 0 13 3 15 8 6 13 123 62
200 82 64 17 131 27 206 30 9 0 12 285 12 1396 l0 1395 -106 -3 c-58 -2 -106
-4 -107 -5z"/>
</g>
</svg>
